<mxfile modified="2023-03-15T22:05:18.348Z" host="Electron" agent="5.0 (Windows NT 10.0; Win64; x64) AppleWebKit/537.36 (KHTML, like Gecko) draw.io/20.3.0 Chrome/104.0.5112.114 Electron/20.1.3 Safari/537.36" etag="pkXqYKhqjTmu9rGMKIXB" compressed="false" version="20.3.0" type="device">
  <diagram id="4Fcouh2BOil3m4Ah38D0" name="User">
    <mxGraphModel dx="782" dy="517" grid="1" gridSize="10" guides="1" tooltips="1" connect="1" arrows="1" fold="1" page="1" pageScale="1" pageWidth="827" pageHeight="1169" math="0" shadow="0">
      <root>
        <mxCell id="CIMFs1MfGYt-mXThH3dG-0" />
        <mxCell id="CIMFs1MfGYt-mXThH3dG-1" parent="CIMFs1MfGYt-mXThH3dG-0" />
        <mxCell id="KprZA-LBd2Wsys3MRVgW-25" style="edgeStyle=none;rounded=0;orthogonalLoop=1;jettySize=auto;html=1;entryX=0;entryY=1;entryDx=0;entryDy=0;endArrow=open;endFill=0;exitX=1;exitY=0.25;exitDx=0;exitDy=0;" parent="CIMFs1MfGYt-mXThH3dG-1" source="KprZA-LBd2Wsys3MRVgW-0" target="KprZA-LBd2Wsys3MRVgW-2" edge="1">
          <mxGeometry relative="1" as="geometry" />
        </mxCell>
        <mxCell id="KprZA-LBd2Wsys3MRVgW-26" style="edgeStyle=none;rounded=0;orthogonalLoop=1;jettySize=auto;html=1;entryX=0;entryY=0.75;entryDx=0;entryDy=0;endArrow=open;endFill=0;exitX=1;exitY=0.5;exitDx=0;exitDy=0;" parent="CIMFs1MfGYt-mXThH3dG-1" source="KprZA-LBd2Wsys3MRVgW-0" target="KprZA-LBd2Wsys3MRVgW-33" edge="1">
          <mxGeometry relative="1" as="geometry" />
        </mxCell>
        <mxCell id="KprZA-LBd2Wsys3MRVgW-27" style="edgeStyle=none;rounded=0;orthogonalLoop=1;jettySize=auto;html=1;entryX=0;entryY=1;entryDx=0;entryDy=0;endArrow=open;endFill=0;exitX=1;exitY=0.75;exitDx=0;exitDy=0;" parent="CIMFs1MfGYt-mXThH3dG-1" source="KprZA-LBd2Wsys3MRVgW-0" target="KprZA-LBd2Wsys3MRVgW-16" edge="1">
          <mxGeometry relative="1" as="geometry" />
        </mxCell>
        <mxCell id="KprZA-LBd2Wsys3MRVgW-37" style="edgeStyle=none;rounded=0;orthogonalLoop=1;jettySize=auto;html=1;entryX=0;entryY=1;entryDx=0;entryDy=0;endArrow=open;endFill=0;exitX=1;exitY=0.75;exitDx=0;exitDy=0;" parent="CIMFs1MfGYt-mXThH3dG-1" source="KprZA-LBd2Wsys3MRVgW-0" target="KprZA-LBd2Wsys3MRVgW-11" edge="1">
          <mxGeometry relative="1" as="geometry" />
        </mxCell>
        <mxCell id="KprZA-LBd2Wsys3MRVgW-0" value="&lt;p style=&quot;line-height: 100%&quot;&gt;&amp;lt;&amp;lt;actor&amp;gt;&amp;gt;&lt;br&gt;&lt;br&gt;&lt;b&gt;Authenticated&lt;br&gt;User&lt;br&gt;&lt;br&gt;&lt;/b&gt;&lt;/p&gt;" style="text;html=1;align=center;verticalAlign=middle;dashed=0;strokeColor=#000000;strokeWidth=2;" parent="CIMFs1MfGYt-mXThH3dG-1" vertex="1">
          <mxGeometry x="120" y="160" width="80" height="77" as="geometry" />
        </mxCell>
        <mxCell id="KprZA-LBd2Wsys3MRVgW-1" value="" style="fontStyle=1;align=center;verticalAlign=top;childLayout=stackLayout;horizontal=1;horizontalStack=0;resizeParent=1;resizeParentMax=0;resizeLast=0;marginBottom=0;strokeColor=#82b366;strokeWidth=2;fillColor=none;" parent="CIMFs1MfGYt-mXThH3dG-1" vertex="1">
          <mxGeometry x="240" y="160" width="110" height="63" as="geometry" />
        </mxCell>
        <mxCell id="KprZA-LBd2Wsys3MRVgW-2" value="List SummaryItem&lt;br&gt;of Group Members" style="html=1;align=left;spacingLeft=4;verticalAlign=middle;strokeColor=none;fillColor=none;fontStyle=1" parent="KprZA-LBd2Wsys3MRVgW-1" vertex="1">
          <mxGeometry width="110" height="30" as="geometry" />
        </mxCell>
        <mxCell id="KprZA-LBd2Wsys3MRVgW-3" value="" style="shape=ellipse;" parent="KprZA-LBd2Wsys3MRVgW-2" vertex="1">
          <mxGeometry x="1" width="10" height="16" relative="1" as="geometry">
            <mxPoint x="-25" y="7" as="offset" />
          </mxGeometry>
        </mxCell>
        <mxCell id="KprZA-LBd2Wsys3MRVgW-4" value="" style="line;strokeWidth=1;fillColor=none;align=left;verticalAlign=middle;spacingTop=-1;spacingLeft=3;spacingRight=3;rotatable=0;labelPosition=right;points=[];portConstraint=eastwest;" parent="KprZA-LBd2Wsys3MRVgW-1" vertex="1">
          <mxGeometry y="30" width="110" height="8" as="geometry" />
        </mxCell>
        <mxCell id="KprZA-LBd2Wsys3MRVgW-5" value="." style="html=1;align=center;spacingLeft=4;verticalAlign=top;strokeColor=none;fillColor=none;" parent="KprZA-LBd2Wsys3MRVgW-1" vertex="1">
          <mxGeometry y="38" width="110" height="25" as="geometry" />
        </mxCell>
        <mxCell id="KprZA-LBd2Wsys3MRVgW-10" value="" style="fontStyle=1;align=center;verticalAlign=top;childLayout=stackLayout;horizontal=1;horizontalStack=0;resizeParent=1;resizeParentMax=0;resizeLast=0;marginBottom=0;strokeColor=#82b366;strokeWidth=2;fillColor=none;" parent="CIMFs1MfGYt-mXThH3dG-1" vertex="1">
          <mxGeometry x="240" y="300" width="110" height="63" as="geometry" />
        </mxCell>
        <mxCell id="KprZA-LBd2Wsys3MRVgW-11" value="View Self" style="html=1;align=left;spacingLeft=4;verticalAlign=middle;strokeColor=none;fillColor=none;fontStyle=1" parent="KprZA-LBd2Wsys3MRVgW-10" vertex="1">
          <mxGeometry width="110" height="30" as="geometry" />
        </mxCell>
        <mxCell id="KprZA-LBd2Wsys3MRVgW-12" value="" style="shape=ellipse;" parent="KprZA-LBd2Wsys3MRVgW-11" vertex="1">
          <mxGeometry x="1" width="10" height="16" relative="1" as="geometry">
            <mxPoint x="-25" y="7" as="offset" />
          </mxGeometry>
        </mxCell>
        <mxCell id="KprZA-LBd2Wsys3MRVgW-13" value="" style="line;strokeWidth=1;fillColor=none;align=left;verticalAlign=middle;spacingTop=-1;spacingLeft=3;spacingRight=3;rotatable=0;labelPosition=right;points=[];portConstraint=eastwest;" parent="KprZA-LBd2Wsys3MRVgW-10" vertex="1">
          <mxGeometry y="30" width="110" height="8" as="geometry" />
        </mxCell>
        <mxCell id="KprZA-LBd2Wsys3MRVgW-14" value="." style="html=1;align=center;spacingLeft=4;verticalAlign=top;strokeColor=none;fillColor=none;" parent="KprZA-LBd2Wsys3MRVgW-10" vertex="1">
          <mxGeometry y="38" width="110" height="25" as="geometry" />
        </mxCell>
        <mxCell id="KprZA-LBd2Wsys3MRVgW-15" value="" style="fontStyle=1;align=center;verticalAlign=top;childLayout=stackLayout;horizontal=1;horizontalStack=0;resizeParent=1;resizeParentMax=0;resizeLast=0;marginBottom=0;strokeColor=#82b366;strokeWidth=2;fillColor=none;" parent="CIMFs1MfGYt-mXThH3dG-1" vertex="1">
          <mxGeometry x="240" y="370" width="110" height="63" as="geometry" />
        </mxCell>
        <mxCell id="KprZA-LBd2Wsys3MRVgW-16" value="Update &lt;br&gt;Self" style="html=1;align=left;spacingLeft=4;verticalAlign=middle;strokeColor=none;fillColor=none;fontStyle=1" parent="KprZA-LBd2Wsys3MRVgW-15" vertex="1">
          <mxGeometry width="110" height="30" as="geometry" />
        </mxCell>
        <mxCell id="KprZA-LBd2Wsys3MRVgW-17" value="" style="shape=ellipse;" parent="KprZA-LBd2Wsys3MRVgW-16" vertex="1">
          <mxGeometry x="1" width="10" height="16" relative="1" as="geometry">
            <mxPoint x="-25" y="7" as="offset" />
          </mxGeometry>
        </mxCell>
        <mxCell id="KprZA-LBd2Wsys3MRVgW-18" value="" style="line;strokeWidth=1;fillColor=none;align=left;verticalAlign=middle;spacingTop=-1;spacingLeft=3;spacingRight=3;rotatable=0;labelPosition=right;points=[];portConstraint=eastwest;" parent="KprZA-LBd2Wsys3MRVgW-15" vertex="1">
          <mxGeometry y="30" width="110" height="8" as="geometry" />
        </mxCell>
        <mxCell id="KprZA-LBd2Wsys3MRVgW-19" value="." style="html=1;align=center;spacingLeft=4;verticalAlign=top;strokeColor=none;fillColor=none;" parent="KprZA-LBd2Wsys3MRVgW-15" vertex="1">
          <mxGeometry y="38" width="110" height="25" as="geometry" />
        </mxCell>
        <mxCell id="KprZA-LBd2Wsys3MRVgW-20" value="" style="fontStyle=1;align=center;verticalAlign=top;childLayout=stackLayout;horizontal=1;horizontalStack=0;resizeParent=1;resizeParentMax=0;resizeLast=0;marginBottom=0;strokeColor=#82b366;strokeWidth=2;fillColor=none;" parent="CIMFs1MfGYt-mXThH3dG-1" vertex="1">
          <mxGeometry x="240" y="440" width="110" height="63" as="geometry" />
        </mxCell>
        <mxCell id="KprZA-LBd2Wsys3MRVgW-21" value="Change State&lt;br&gt;Of Member" style="html=1;align=left;spacingLeft=4;verticalAlign=middle;strokeColor=none;fillColor=none;fontStyle=1" parent="KprZA-LBd2Wsys3MRVgW-20" vertex="1">
          <mxGeometry width="110" height="30" as="geometry" />
        </mxCell>
        <mxCell id="KprZA-LBd2Wsys3MRVgW-22" value="" style="shape=ellipse;" parent="KprZA-LBd2Wsys3MRVgW-21" vertex="1">
          <mxGeometry x="1" width="10" height="16" relative="1" as="geometry">
            <mxPoint x="-25" y="7" as="offset" />
          </mxGeometry>
        </mxCell>
        <mxCell id="KprZA-LBd2Wsys3MRVgW-23" value="" style="line;strokeWidth=1;fillColor=none;align=left;verticalAlign=middle;spacingTop=-1;spacingLeft=3;spacingRight=3;rotatable=0;labelPosition=right;points=[];portConstraint=eastwest;" parent="KprZA-LBd2Wsys3MRVgW-20" vertex="1">
          <mxGeometry y="30" width="110" height="8" as="geometry" />
        </mxCell>
        <mxCell id="KprZA-LBd2Wsys3MRVgW-24" value="." style="html=1;align=center;spacingLeft=4;verticalAlign=top;strokeColor=none;fillColor=none;" parent="KprZA-LBd2Wsys3MRVgW-20" vertex="1">
          <mxGeometry y="38" width="110" height="25" as="geometry" />
        </mxCell>
        <mxCell id="KprZA-LBd2Wsys3MRVgW-31" style="edgeStyle=none;rounded=0;orthogonalLoop=1;jettySize=auto;html=1;entryX=0;entryY=1;entryDx=0;entryDy=0;endArrow=open;endFill=0;exitX=1;exitY=0.5;exitDx=0;exitDy=0;" parent="CIMFs1MfGYt-mXThH3dG-1" source="KprZA-LBd2Wsys3MRVgW-28" target="KprZA-LBd2Wsys3MRVgW-21" edge="1">
          <mxGeometry relative="1" as="geometry" />
        </mxCell>
        <mxCell id="KprZA-LBd2Wsys3MRVgW-28" value="&lt;p style=&quot;line-height: 100%&quot;&gt;&amp;lt;&amp;lt;actor&amp;gt;&amp;gt;&lt;br&gt;&lt;br&gt;&lt;b&gt;SysAdmin&lt;/b&gt;&lt;/p&gt;" style="text;html=1;align=center;verticalAlign=middle;dashed=0;strokeColor=#000000;strokeWidth=2;" parent="CIMFs1MfGYt-mXThH3dG-1" vertex="1">
          <mxGeometry x="120" y="252" width="80" height="77" as="geometry" />
        </mxCell>
        <mxCell id="KprZA-LBd2Wsys3MRVgW-30" style="edgeStyle=none;rounded=0;orthogonalLoop=1;jettySize=auto;html=1;entryX=-0.001;entryY=-0.317;entryDx=0;entryDy=0;entryPerimeter=0;endArrow=open;endFill=0;exitX=1;exitY=0.5;exitDx=0;exitDy=0;" parent="CIMFs1MfGYt-mXThH3dG-1" source="KprZA-LBd2Wsys3MRVgW-29" target="KprZA-LBd2Wsys3MRVgW-23" edge="1">
          <mxGeometry relative="1" as="geometry" />
        </mxCell>
        <mxCell id="KprZA-LBd2Wsys3MRVgW-29" value="&lt;p style=&quot;line-height: 100%&quot;&gt;&amp;lt;&amp;lt;actor&amp;gt;&amp;gt;&lt;br&gt;&lt;br&gt;&lt;b&gt;Daemon&lt;/b&gt;&lt;/p&gt;" style="text;html=1;align=center;verticalAlign=middle;dashed=0;strokeColor=#000000;strokeWidth=2;" parent="CIMFs1MfGYt-mXThH3dG-1" vertex="1">
          <mxGeometry x="120" y="340" width="80" height="77" as="geometry" />
        </mxCell>
        <mxCell id="KprZA-LBd2Wsys3MRVgW-32" value="" style="fontStyle=1;align=center;verticalAlign=top;childLayout=stackLayout;horizontal=1;horizontalStack=0;resizeParent=1;resizeParentMax=0;resizeLast=0;marginBottom=0;strokeColor=#82b366;strokeWidth=2;fillColor=none;" parent="CIMFs1MfGYt-mXThH3dG-1" vertex="1">
          <mxGeometry x="240" y="230" width="110" height="63" as="geometry" />
        </mxCell>
        <mxCell id="KprZA-LBd2Wsys3MRVgW-33" value="View Group&lt;br&gt;Member Summary" style="html=1;align=left;spacingLeft=4;verticalAlign=middle;strokeColor=none;fillColor=none;fontStyle=1" parent="KprZA-LBd2Wsys3MRVgW-32" vertex="1">
          <mxGeometry width="110" height="30" as="geometry" />
        </mxCell>
        <mxCell id="KprZA-LBd2Wsys3MRVgW-34" value="" style="shape=ellipse;" parent="KprZA-LBd2Wsys3MRVgW-33" vertex="1">
          <mxGeometry x="1" width="10" height="16" relative="1" as="geometry">
            <mxPoint x="-25" y="7" as="offset" />
          </mxGeometry>
        </mxCell>
        <mxCell id="KprZA-LBd2Wsys3MRVgW-35" value="" style="line;strokeWidth=1;fillColor=none;align=left;verticalAlign=middle;spacingTop=-1;spacingLeft=3;spacingRight=3;rotatable=0;labelPosition=right;points=[];portConstraint=eastwest;" parent="KprZA-LBd2Wsys3MRVgW-32" vertex="1">
          <mxGeometry y="30" width="110" height="8" as="geometry" />
        </mxCell>
        <mxCell id="KprZA-LBd2Wsys3MRVgW-36" value="." style="html=1;align=center;spacingLeft=4;verticalAlign=top;strokeColor=none;fillColor=none;" parent="KprZA-LBd2Wsys3MRVgW-32" vertex="1">
          <mxGeometry y="38" width="110" height="25" as="geometry" />
        </mxCell>
        <mxCell id="KprZA-LBd2Wsys3MRVgW-42" style="edgeStyle=none;rounded=0;orthogonalLoop=1;jettySize=auto;html=1;endArrow=open;endFill=0;exitX=1;exitY=0.5;exitDx=0;exitDy=0;" parent="CIMFs1MfGYt-mXThH3dG-1" source="KprZA-LBd2Wsys3MRVgW-41" edge="1">
          <mxGeometry relative="1" as="geometry">
            <mxPoint x="240" y="470" as="targetPoint" />
          </mxGeometry>
        </mxCell>
        <mxCell id="KprZA-LBd2Wsys3MRVgW-41" value="&lt;p style=&quot;line-height: 100%&quot;&gt;&amp;lt;&amp;lt;actor&amp;gt;&amp;gt;&lt;br&gt;&lt;br&gt;&lt;b&gt;Monitoring&amp;nbsp;&lt;/b&gt;&lt;/p&gt;&lt;p style=&quot;line-height: 100%&quot;&gt;&lt;b&gt;Specialist&lt;/b&gt;&lt;/p&gt;" style="text;html=1;align=center;verticalAlign=middle;dashed=0;strokeColor=#000000;strokeWidth=2;" parent="CIMFs1MfGYt-mXThH3dG-1" vertex="1">
          <mxGeometry x="120" y="430" width="80" height="77" as="geometry" />
        </mxCell>
        <mxCell id="gBGj4zzETJFFmrauXDrr-0" value="Title" parent="CIMFs1MfGYt-mXThH3dG-0" visible="0" />
        <mxCell id="gBGj4zzETJFFmrauXDrr-1" value="Notes" parent="CIMFs1MfGYt-mXThH3dG-0" />
        <mxCell id="KprZA-LBd2Wsys3MRVgW-39" value="Users &lt;br&gt;see a Public (PII safe) view&amp;nbsp;&lt;br&gt;of other Users, but the full view of themselves." style="shape=note;size=20;whiteSpace=wrap;html=1;strokeWidth=1;fillColor=none;verticalAlign=top;" parent="gBGj4zzETJFFmrauXDrr-1" vertex="1">
          <mxGeometry x="400" y="160" width="100" height="100" as="geometry" />
        </mxCell>
        <mxCell id="KprZA-LBd2Wsys3MRVgW-40" value="State of &lt;br&gt;Users&lt;br&gt;is updated based on Subscription or other similar data points." style="shape=note;size=20;whiteSpace=wrap;html=1;strokeWidth=1;fillColor=none;verticalAlign=top;" parent="gBGj4zzETJFFmrauXDrr-1" vertex="1">
          <mxGeometry x="400" y="403" width="100" height="100" as="geometry" />
        </mxCell>
      </root>
    </mxGraphModel>
  </diagram>
</mxfile>
